<svg xmlns="http://www.w3.org/2000/svg" xmlns:xlink="http://www.w3.org/1999/xlink" width="1142" zoomAndPan="magnify" viewBox="0 0 856.5 570.749988" height="761" preserveAspectRatio="xMidYMid meet" version="1.0"><defs><clipPath id="6eaebb03d8"><path d="M 0 0.0429688 L 856 0.0429688 L 856 570.457031 L 0 570.457031 Z M 0 0.0429688 " clip-rule="nonzero"/></clipPath><clipPath id="58134d74b2"><path d="M 268.441406 125.605469 L 587.941406 125.605469 L 587.941406 445.105469 L 268.441406 445.105469 Z M 268.441406 125.605469 " clip-rule="nonzero"/></clipPath></defs><g clip-path="url(#6eaebb03d8)"><path fill="#ffffff" d="M 0 0.0429688 L 856.5 0.0429688 L 856.5 578.292969 L 0 578.292969 Z M 0 0.0429688 " fill-opacity="1" fill-rule="nonzero"/><path fill="#ffffff" d="M 0 0.0429688 L 856.5 0.0429688 L 856.5 570.792969 L 0 570.792969 Z M 0 0.0429688 " fill-opacity="1" fill-rule="nonzero"/><path fill="#ebebeb" d="M 0 0.0429688 L 856.5 0.0429688 L 856.5 570.792969 L 0 570.792969 Z M 0 0.0429688 " fill-opacity="1" fill-rule="nonzero"/></g><g clip-path="url(#58134d74b2)"><path fill="#f7df1e" d="M 268.441406 125.605469 L 587.941406 125.605469 L 587.941406 445.105469 L 268.441406 445.105469 Z M 268.441406 125.605469 " fill-opacity="1" fill-rule="nonzero"/></g><path fill="#000000" d="M 352.449219 392.601562 L 376.898438 377.8125 C 381.617188 386.175781 385.90625 393.25 396.203125 393.25 C 406.0625 393.25 412.289062 389.382812 412.289062 374.378906 L 412.289062 272.289062 L 442.304688 272.289062 L 442.304688 374.804688 C 442.304688 405.894531 424.085938 420.058594 397.488281 420.058594 C 373.46875 420.058594 359.527344 407.617188 352.449219 392.601562 " fill-opacity="1" fill-rule="nonzero"/><path fill="#000000" d="M 458.617188 389.382812 L 483.066406 375.230469 C 489.507812 385.738281 497.867188 393.464844 512.660156 393.464844 C 525.101562 393.464844 533.039062 387.246094 533.039062 378.660156 C 533.039062 368.363281 524.890625 364.71875 511.160156 358.71875 L 503.660156 355.496094 C 481.992188 346.273438 467.628906 334.703125 467.628906 310.242188 C 467.628906 287.726562 484.777344 270.566406 511.597656 270.566406 C 530.679688 270.566406 544.410156 277.21875 554.269531 294.59375 L 530.890625 309.605469 C 525.75 300.382812 520.171875 296.738281 511.597656 296.738281 C 502.796875 296.738281 497.21875 302.316406 497.21875 309.605469 C 497.21875 318.617188 502.796875 322.261719 515.667969 327.839844 L 523.167969 331.046875 C 548.6875 341.992188 563.066406 353.136719 563.066406 378.238281 C 563.066406 405.257812 541.835938 420.058594 513.308594 420.058594 C 485.425781 420.058594 467.417969 406.753906 458.617188 389.382812 " fill-opacity="1" fill-rule="nonzero"/></svg>