<svg xmlns="http://www.w3.org/2000/svg" xmlns:xlink="http://www.w3.org/1999/xlink" width="1142" zoomAndPan="magnify" viewBox="0 0 856.5 570.749988" height="761" preserveAspectRatio="xMidYMid meet" version="1.0"><defs><clipPath id="b08e1d4618"><path d="M 0 0.0429688 L 856 0.0429688 L 856 570.457031 L 0 570.457031 Z M 0 0.0429688 " clip-rule="nonzero"/></clipPath><clipPath id="b0ead90f00"><path d="M 268.441406 145 L 587.941406 145 L 587.941406 507.867188 L 268.441406 507.867188 Z M 268.441406 145 " clip-rule="nonzero"/></clipPath><clipPath id="6473e4f5e0"><path d="M 298 57.117188 L 358 57.117188 L 358 118 L 298 118 Z M 298 57.117188 " clip-rule="nonzero"/></clipPath><clipPath id="6f7b2c60c5"><path d="M 366 57.117188 L 423 57.117188 L 423 118 L 366 118 Z M 366 57.117188 " clip-rule="nonzero"/></clipPath><clipPath id="8532667c52"><path d="M 431 57.117188 L 500 57.117188 L 500 118 L 431 118 Z M 431 57.117188 " clip-rule="nonzero"/></clipPath><clipPath id="1915ad7292"><path d="M 509 57.117188 L 559 57.117188 L 559 118 L 509 118 Z M 509 57.117188 " clip-rule="nonzero"/></clipPath></defs><g clip-path="url(#b08e1d4618)"><path fill="#ffffff" d="M 0 0.0429688 L 856.5 0.0429688 L 856.5 578.292969 L 0 578.292969 Z M 0 0.0429688 " fill-opacity="1" fill-rule="nonzero"/><path fill="#ffffff" d="M 0 0.0429688 L 856.5 0.0429688 L 856.5 570.792969 L 0 570.792969 Z M 0 0.0429688 " fill-opacity="1" fill-rule="nonzero"/><path fill="#ebebeb" d="M 0 0.0429688 L 856.5 0.0429688 L 856.5 570.792969 L 0 570.792969 Z M 0 0.0429688 " fill-opacity="1" fill-rule="nonzero"/></g><g clip-path="url(#b0ead90f00)"><path fill="#e44d26" d="M 587.847656 145.695312 L 558.769531 471.597656 L 428.054688 507.847656 L 297.699219 471.648438 L 268.652344 145.695312 L 587.84375 145.691406 L 587.855469 145.691406 Z M 587.847656 145.695312 " fill-opacity="1" fill-rule="nonzero"/></g><path fill="#f16529" d="M 428.253906 480.140625 L 533.882812 450.851562 L 558.734375 172.351562 L 428.253906 172.347656 Z M 428.253906 480.140625 " fill-opacity="1" fill-rule="nonzero"/><path fill="#ebebeb" d="M 371.722656 252.300781 L 428.253906 252.300781 L 428.253906 212.320312 L 328.050781 212.320312 L 329.003906 223.046875 L 338.828125 333.210938 L 428.253906 333.210938 L 428.253906 293.242188 L 375.375 293.242188 Z M 371.722656 252.300781 " fill-opacity="1" fill-rule="nonzero"/><path fill="#ebebeb" d="M 380.726562 353.203125 L 340.613281 353.203125 L 346.210938 415.976562 L 428.066406 438.707031 L 428.253906 438.65625 L 428.253906 397.0625 L 428.078125 397.113281 L 383.574219 385.082031 Z M 380.726562 353.203125 " fill-opacity="1" fill-rule="nonzero"/><g clip-path="url(#6473e4f5e0)"><path fill="#000000" d="M 298.351562 57.117188 L 318.65625 57.117188 L 318.65625 77.1875 L 337.234375 77.1875 L 337.234375 57.117188 L 357.542969 57.117188 L 357.542969 117.898438 L 337.234375 117.898438 L 337.234375 97.546875 L 318.65625 97.546875 L 318.65625 117.898438 L 298.351562 117.898438 Z M 298.351562 57.117188 " fill-opacity="1" fill-rule="nonzero"/></g><g clip-path="url(#6f7b2c60c5)"><path fill="#000000" d="M 384.246094 77.273438 L 366.371094 77.273438 L 366.371094 57.117188 L 422.445312 57.117188 L 422.445312 77.273438 L 404.554688 77.273438 L 404.554688 117.898438 L 384.25 117.898438 L 384.25 77.273438 Z M 384.246094 77.273438 " fill-opacity="1" fill-rule="nonzero"/></g><g clip-path="url(#8532667c52)"><path fill="#000000" d="M 431.34375 57.117188 L 452.515625 57.117188 L 465.539062 78.472656 L 478.554688 57.117188 L 499.738281 57.117188 L 499.738281 117.898438 L 479.515625 117.898438 L 479.515625 87.773438 L 465.539062 109.382812 L 465.191406 109.382812 L 451.214844 87.773438 L 451.214844 117.898438 L 431.34375 117.898438 Z M 431.34375 57.117188 " fill-opacity="1" fill-rule="nonzero"/></g><g clip-path="url(#1915ad7292)"><path fill="#000000" d="M 509.847656 57.117188 L 530.15625 57.117188 L 530.15625 97.808594 L 558.71875 97.808594 L 558.71875 117.898438 L 509.847656 117.898438 Z M 509.847656 57.117188 " fill-opacity="1" fill-rule="nonzero"/></g><path fill="#ffffff" d="M 428.117188 333.210938 L 477.328125 333.210938 L 472.683594 385.058594 L 428.117188 397.101562 L 428.117188 438.683594 L 510.035156 415.976562 L 510.636719 409.21875 L 520.03125 303.972656 L 521.007812 293.242188 L 428.117188 293.242188 Z M 428.117188 333.210938 " fill-opacity="1" fill-rule="nonzero"/><path fill="#ffffff" d="M 428.117188 252.199219 L 428.117188 252.300781 L 524.636719 252.300781 L 525.4375 243.3125 L 527.265625 223.046875 L 528.214844 212.320312 L 428.117188 212.320312 Z M 428.117188 252.199219 " fill-opacity="1" fill-rule="nonzero"/></svg>