<svg xmlns="http://www.w3.org/2000/svg" xmlns:xlink="http://www.w3.org/1999/xlink" width="1142" zoomAndPan="magnify" viewBox="0 0 856.5 570.749988" height="761" preserveAspectRatio="xMidYMid meet" version="1.0"><defs><clipPath id="e4a17840d9"><path d="M 0 0.0429688 L 856 0.0429688 L 856 570.457031 L 0 570.457031 Z M 0 0.0429688 " clip-rule="nonzero"/></clipPath><clipPath id="94418d905f"><path d="M 268.441406 148 L 587.941406 148 L 587.941406 510.792969 L 268.441406 510.792969 Z M 268.441406 148 " clip-rule="nonzero"/></clipPath><clipPath id="6e6e1feee7"><path d="M 343 60.042969 L 393 60.042969 L 393 121 L 343 121 Z M 343 60.042969 " clip-rule="nonzero"/></clipPath><clipPath id="5d16e1a280"><path d="M 401 60.042969 L 451 60.042969 L 451 122 L 401 122 Z M 401 60.042969 " clip-rule="nonzero"/></clipPath><clipPath id="c931637a9f"><path d="M 459 60.042969 L 509 60.042969 L 509 122 L 459 122 Z M 459 60.042969 " clip-rule="nonzero"/></clipPath></defs><g clip-path="url(#e4a17840d9)"><path fill="#ffffff" d="M 0 0.0429688 L 856.5 0.0429688 L 856.5 578.292969 L 0 578.292969 Z M 0 0.0429688 " fill-opacity="1" fill-rule="nonzero"/><path fill="#ffffff" d="M 0 0.0429688 L 856.5 0.0429688 L 856.5 570.792969 L 0 570.792969 Z M 0 0.0429688 " fill-opacity="1" fill-rule="nonzero"/><path fill="#ebebeb" d="M 0 0.0429688 L 856.5 0.0429688 L 856.5 570.792969 L 0 570.792969 Z M 0 0.0429688 " fill-opacity="1" fill-rule="nonzero"/></g><g clip-path="url(#94418d905f)"><path fill="#264de4" d="M 428.054688 510.78125 L 297.699219 474.582031 L 268.652344 148.628906 L 587.84375 148.625 L 558.777344 474.527344 L 428.058594 510.777344 Z M 428.054688 510.78125 " fill-opacity="1" fill-rule="nonzero"/></g><path fill="#2965f1" d="M 533.882812 453.777344 L 558.734375 175.277344 L 428.253906 175.273438 L 428.253906 483.066406 L 533.882812 453.773438 Z M 533.882812 453.777344 " fill-opacity="1" fill-rule="nonzero"/><path fill="#ebebeb" d="M 335.246094 296.171875 L 338.828125 336.140625 L 428.253906 336.140625 L 428.253906 296.171875 Z M 335.246094 296.171875 " fill-opacity="1" fill-rule="nonzero"/><path fill="#ebebeb" d="M 328.050781 215.246094 L 331.683594 255.226562 L 428.253906 255.226562 L 428.253906 215.246094 Z M 328.050781 215.246094 " fill-opacity="1" fill-rule="nonzero"/><path fill="#ebebeb" d="M 428.253906 399.992188 L 428.078125 400.039062 L 383.574219 388.011719 L 380.726562 356.128906 L 340.613281 356.128906 L 346.210938 418.902344 L 428.066406 441.636719 L 428.253906 441.585938 Z M 428.253906 399.992188 " fill-opacity="1" fill-rule="nonzero"/><g clip-path="url(#6e6e1feee7)"><path fill="#000000" d="M 343.773438 60.042969 L 392.171875 60.042969 L 392.171875 80.292969 L 364.011719 80.292969 L 364.011719 100.539062 L 392.171875 100.539062 L 392.171875 120.789062 L 343.773438 120.789062 Z M 343.773438 60.042969 " fill-opacity="1" fill-rule="nonzero"/></g><g clip-path="url(#5d16e1a280)"><path fill="#000000" d="M 401.851562 60.042969 L 450.25 60.042969 L 450.25 77.652344 L 422.097656 77.652344 L 422.097656 81.171875 L 450.25 81.171875 L 450.25 121.667969 L 401.851562 121.667969 L 401.851562 103.179688 L 430.015625 103.179688 L 430.015625 99.660156 L 401.851562 99.660156 Z M 401.851562 60.042969 " fill-opacity="1" fill-rule="nonzero"/></g><g clip-path="url(#c931637a9f)"><path fill="#000000" d="M 459.933594 60.042969 L 508.332031 60.042969 L 508.332031 77.652344 L 480.167969 77.652344 L 480.167969 81.171875 L 508.332031 81.171875 L 508.332031 121.667969 L 459.933594 121.667969 L 459.933594 103.179688 L 488.085938 103.179688 L 488.085938 99.660156 L 459.933594 99.660156 Z M 459.933594 60.042969 " fill-opacity="1" fill-rule="nonzero"/></g><path fill="#ffffff" d="M 521.007812 296.171875 L 528.214844 215.246094 L 428.117188 215.246094 L 428.117188 255.226562 L 484.421875 255.226562 L 480.792969 296.171875 L 428.117188 296.171875 L 428.117188 336.140625 L 477.328125 336.140625 L 472.683594 387.988281 L 428.117188 400.027344 L 428.117188 441.609375 L 510.035156 418.902344 L 510.636719 412.144531 L 520.03125 306.898438 Z M 521.007812 296.171875 " fill-opacity="1" fill-rule="nonzero"/></svg>