<svg xmlns="http://www.w3.org/2000/svg" xmlns:xlink="http://www.w3.org/1999/xlink" width="1142" zoomAndPan="magnify" viewBox="0 0 856.5 570.749988" height="761" preserveAspectRatio="xMidYMid meet" version="1.0"><defs><clipPath id="1b40b2d930"><path d="M 0 0.0429688 L 856 0.0429688 L 856 570.457031 L 0 570.457031 Z M 0 0.0429688 " clip-rule="nonzero"/></clipPath><clipPath id="b10745ffd2"><path d="M 203.921875 167.132812 L 652.421875 167.132812 L 652.421875 403.382812 L 203.921875 403.382812 Z M 203.921875 167.132812 " clip-rule="nonzero"/></clipPath><clipPath id="9f3bc367c2"><path d="M 652.421875 285.257812 C 652.421875 287.1875 652.332031 289.113281 652.152344 291.039062 C 651.96875 292.964844 651.699219 294.886719 651.339844 296.804688 C 650.980469 298.722656 650.53125 300.636719 649.992188 302.542969 C 649.453125 304.449219 648.828125 306.347656 648.113281 308.238281 C 647.394531 310.128906 646.589844 312.011719 645.699219 313.878906 C 644.808594 315.75 643.828125 317.609375 642.765625 319.453125 C 641.699219 321.296875 640.546875 323.128906 639.3125 324.941406 C 638.074219 326.757812 636.753906 328.554688 635.351562 330.335938 C 633.945312 332.117188 632.460938 333.878906 630.890625 335.621094 C 629.320312 337.363281 627.671875 339.085938 625.941406 340.785156 C 624.210938 342.488281 622.402344 344.164062 620.515625 345.816406 C 618.628906 347.472656 616.667969 349.097656 614.628906 350.703125 C 612.589844 352.304688 610.476562 353.878906 608.289062 355.429688 C 606.105469 356.976562 603.847656 358.496094 601.519531 359.988281 C 599.191406 361.476562 596.792969 362.9375 594.328125 364.363281 C 591.863281 365.792969 589.335938 367.1875 586.738281 368.550781 C 584.144531 369.914062 581.488281 371.242188 578.769531 372.539062 C 576.046875 373.832031 573.269531 375.09375 570.433594 376.316406 C 567.597656 377.539062 564.703125 378.722656 561.757812 379.871094 C 558.808594 381.019531 555.808594 382.128906 552.757812 383.203125 C 549.707031 384.273438 546.605469 385.304688 543.457031 386.292969 C 540.308594 387.285156 537.117188 388.234375 533.882812 389.144531 C 530.644531 390.054688 527.367188 390.917969 524.050781 391.742188 C 520.730469 392.566406 517.378906 393.347656 513.988281 394.085938 C 510.597656 394.824219 507.171875 395.519531 503.71875 396.167969 C 500.261719 396.816406 496.777344 397.421875 493.265625 397.980469 C 489.753906 398.539062 486.21875 399.054688 482.660156 399.523438 C 479.097656 399.992188 475.519531 400.414062 471.917969 400.789062 C 468.320312 401.167969 464.707031 401.496094 461.074219 401.777344 C 457.445312 402.0625 453.804688 402.296875 450.152344 402.484375 C 446.5 402.675781 442.839844 402.816406 439.175781 402.910156 C 435.507812 403.007812 431.839844 403.054688 428.171875 403.054688 C 424.5 403.054688 420.832031 403.007812 417.167969 402.910156 C 413.5 402.816406 409.84375 402.675781 406.191406 402.484375 C 402.539062 402.296875 398.898438 402.0625 395.265625 401.777344 C 391.636719 401.496094 388.019531 401.167969 384.421875 400.789062 C 380.820312 400.414062 377.242188 399.992188 373.683594 399.523438 C 370.121094 399.054688 366.585938 398.539062 363.074219 397.980469 C 359.5625 397.421875 356.078125 396.816406 352.621094 396.167969 C 349.167969 395.519531 345.746094 394.824219 342.355469 394.085938 C 338.964844 393.347656 335.609375 392.566406 332.292969 391.742188 C 328.972656 390.917969 325.695312 390.054688 322.460938 389.144531 C 319.222656 388.234375 316.03125 387.285156 312.882812 386.292969 C 309.734375 385.304688 306.636719 384.273438 303.582031 383.203125 C 300.53125 382.128906 297.53125 381.019531 294.585938 379.871094 C 291.636719 378.722656 288.746094 377.539062 285.90625 376.316406 C 283.070312 375.09375 280.292969 373.832031 277.574219 372.539062 C 274.855469 371.246094 272.195312 369.914062 269.601562 368.550781 C 267.007812 367.1875 264.476562 365.792969 262.011719 364.363281 C 259.546875 362.9375 257.152344 361.476562 254.824219 359.988281 C 252.496094 358.496094 250.238281 356.976562 248.050781 355.429688 C 245.863281 353.878906 243.753906 352.304688 241.714844 350.703125 C 239.675781 349.097656 237.710938 347.472656 235.824219 345.816406 C 233.9375 344.164062 232.128906 342.488281 230.398438 340.785156 C 228.667969 339.085938 227.019531 337.363281 225.449219 335.621094 C 223.882812 333.878906 222.394531 332.117188 220.992188 330.335938 C 219.585938 328.554688 218.265625 326.757812 217.03125 324.941406 C 215.792969 323.128906 214.640625 321.296875 213.578125 319.453125 C 212.511719 317.609375 211.53125 315.75 210.640625 313.878906 C 209.75 312.011719 208.945312 310.128906 208.230469 308.238281 C 207.511719 306.347656 206.886719 304.449219 206.347656 302.542969 C 205.808594 300.636719 205.359375 298.722656 205 296.804688 C 204.640625 294.886719 204.371094 292.964844 204.191406 291.039062 C 204.011719 289.113281 203.921875 287.1875 203.921875 285.257812 C 203.921875 283.332031 204.011719 281.40625 204.191406 279.480469 C 204.371094 277.554688 204.640625 275.632812 205 273.714844 C 205.359375 271.792969 205.808594 269.882812 206.347656 267.976562 C 206.886719 266.066406 207.511719 264.167969 208.230469 262.277344 C 208.945312 260.386719 209.75 258.507812 210.640625 256.636719 C 211.53125 254.765625 212.511719 252.910156 213.578125 251.066406 C 214.640625 249.21875 215.792969 247.390625 217.03125 245.574219 C 218.265625 243.761719 219.585938 241.960938 220.992188 240.179688 C 222.394531 238.398438 223.882812 236.636719 225.449219 234.894531 C 227.019531 233.152344 228.667969 231.429688 230.398438 229.730469 C 232.128906 228.03125 233.9375 226.355469 235.824219 224.699219 C 237.710938 223.046875 239.675781 221.417969 241.714844 219.816406 C 243.753906 218.210938 245.863281 216.636719 248.050781 215.089844 C 250.238281 213.539062 252.496094 212.019531 254.824219 210.53125 C 257.152344 209.039062 259.546875 207.582031 262.011719 206.152344 C 264.476562 204.722656 267.007812 203.328125 269.601562 201.964844 C 272.195312 200.601562 274.855469 199.273438 277.574219 197.980469 C 280.292969 196.683594 283.070312 195.425781 285.90625 194.203125 C 288.746094 192.980469 291.636719 191.792969 294.585938 190.644531 C 297.53125 189.496094 300.53125 188.386719 303.582031 187.316406 C 306.636719 186.246094 309.734375 185.214844 312.882812 184.222656 C 316.03125 183.230469 319.222656 182.28125 322.460938 181.375 C 325.695312 180.464844 328.972656 179.597656 332.292969 178.773438 C 335.609375 177.949219 338.964844 177.167969 342.355469 176.429688 C 345.746094 175.691406 349.167969 175 352.621094 174.351562 C 356.078125 173.699219 359.5625 173.097656 363.074219 172.535156 C 366.585938 171.976562 370.121094 171.460938 373.683594 170.996094 C 377.242188 170.527344 380.820312 170.105469 384.421875 169.726562 C 388.019531 169.351562 391.636719 169.023438 395.265625 168.738281 C 398.898438 168.457031 402.539062 168.21875 406.191406 168.03125 C 409.84375 167.84375 413.5 167.699219 417.167969 167.605469 C 420.832031 167.511719 424.5 167.464844 428.171875 167.464844 C 431.839844 167.464844 435.507812 167.511719 439.175781 167.605469 C 442.839844 167.699219 446.5 167.84375 450.152344 168.03125 C 453.804688 168.21875 457.445312 168.457031 461.074219 168.738281 C 464.707031 169.023438 468.320312 169.351562 471.917969 169.726562 C 475.519531 170.105469 479.097656 170.527344 482.660156 170.996094 C 486.21875 171.460938 489.753906 171.976562 493.265625 172.535156 C 496.777344 173.097656 500.261719 173.699219 503.71875 174.351562 C 507.171875 175 510.597656 175.691406 513.988281 176.429688 C 517.378906 177.167969 520.730469 177.949219 524.050781 178.773438 C 527.367188 179.597656 530.644531 180.464844 533.882812 181.375 C 537.117188 182.28125 540.308594 183.230469 543.457031 184.222656 C 546.605469 185.214844 549.707031 186.246094 552.757812 187.316406 C 555.808594 188.386719 558.808594 189.496094 561.757812 190.644531 C 564.703125 191.792969 567.597656 192.980469 570.433594 194.203125 C 573.269531 195.425781 576.046875 196.683594 578.769531 197.980469 C 581.488281 199.273438 584.144531 200.601562 586.738281 201.964844 C 589.335938 203.328125 591.863281 204.722656 594.328125 206.152344 C 596.792969 207.582031 599.191406 209.039062 601.519531 210.53125 C 603.847656 212.019531 606.105469 213.539062 608.289062 215.089844 C 610.476562 216.636719 612.589844 218.210938 614.628906 219.816406 C 616.667969 221.417969 618.628906 223.046875 620.515625 224.699219 C 622.402344 226.355469 624.210938 228.03125 625.941406 229.730469 C 627.671875 231.429688 629.320312 233.152344 630.890625 234.894531 C 632.460938 236.636719 633.945312 238.398438 635.351562 240.179688 C 636.753906 241.960938 638.074219 243.761719 639.3125 245.574219 C 640.546875 247.390625 641.699219 249.21875 642.765625 251.066406 C 643.828125 252.910156 644.808594 254.765625 645.699219 256.636719 C 646.589844 258.507812 647.394531 260.386719 648.113281 262.277344 C 648.828125 264.167969 649.453125 266.066406 649.992188 267.976562 C 650.53125 269.882812 650.980469 271.792969 651.339844 273.710938 C 651.699219 275.632812 651.96875 277.554688 652.152344 279.480469 C 652.332031 281.40625 652.421875 283.332031 652.421875 285.257812 Z M 652.421875 285.257812 " clip-rule="nonzero"/></clipPath><radialGradient gradientTransform="matrix(1.000475, 0, 0, 0.999525, 337.881914, 310.844506)" gradientUnits="userSpaceOnUse" r="294.35797" cx="0.67829" id="6cbc2ef98a" cy="-102.002907" fx="0.67829" fy="-102.002907"><stop stop-opacity="1" stop-color="rgb(99.725342%, 99.772644%, 99.839783%)" offset="0"/><stop stop-opacity="1" stop-color="rgb(99.176025%, 99.319458%, 99.520874%)" offset="0.00390625"/><stop stop-opacity="1" stop-color="rgb(98.628235%, 98.866272%, 99.201965%)" offset="0.0078125"/><stop stop-opacity="1" stop-color="rgb(98.078918%, 98.413086%, 98.883057%)" offset="0.0117188"/><stop stop-opacity="1" stop-color="rgb(97.531128%, 97.9599%, 98.564148%)" offset="0.015625"/><stop stop-opacity="1" stop-color="rgb(96.981812%, 97.506714%, 98.245239%)" offset="0.0195312"/><stop stop-opacity="1" stop-color="rgb(96.434021%, 97.053528%, 97.926331%)" offset="0.0234375"/><stop stop-opacity="1" stop-color="rgb(95.88623%, 96.600342%, 97.607422%)" offset="0.0273438"/><stop stop-opacity="1" stop-color="rgb(95.336914%, 96.147156%, 97.288513%)" offset="0.03125"/><stop stop-opacity="1" stop-color="rgb(94.789124%, 95.69397%, 96.97113%)" offset="0.0351562"/><stop stop-opacity="1" stop-color="rgb(94.239807%, 95.240784%, 96.652222%)" offset="0.0390625"/><stop stop-opacity="1" stop-color="rgb(93.692017%, 94.787598%, 96.333313%)" offset="0.0429688"/><stop stop-opacity="1" stop-color="rgb(93.1427%, 94.334412%, 96.014404%)" offset="0.046875"/><stop stop-opacity="1" stop-color="rgb(92.59491%, 93.881226%, 95.695496%)" offset="0.0507812"/><stop stop-opacity="1" stop-color="rgb(92.047119%, 93.42804%, 95.376587%)" offset="0.0546875"/><stop stop-opacity="1" stop-color="rgb(91.497803%, 92.974854%, 95.057678%)" offset="0.0585938"/><stop stop-opacity="1" stop-color="rgb(90.950012%, 92.521667%, 94.73877%)" offset="0.0625"/><stop stop-opacity="1" stop-color="rgb(90.400696%, 92.068481%, 94.419861%)" offset="0.0664062"/><stop stop-opacity="1" stop-color="rgb(89.852905%, 91.615295%, 94.100952%)" offset="0.0703125"/><stop stop-opacity="1" stop-color="rgb(89.303589%, 91.162109%, 93.783569%)" offset="0.0742188"/><stop stop-opacity="1" stop-color="rgb(88.755798%, 90.708923%, 93.464661%)" offset="0.078125"/><stop stop-opacity="1" stop-color="rgb(88.208008%, 90.255737%, 93.145752%)" offset="0.0820312"/><stop stop-opacity="1" stop-color="rgb(87.658691%, 89.802551%, 92.826843%)" offset="0.0859375"/><stop stop-opacity="1" stop-color="rgb(87.110901%, 89.349365%, 92.507935%)" offset="0.0898438"/><stop stop-opacity="1" stop-color="rgb(86.561584%, 88.897705%, 92.189026%)" offset="0.09375"/><stop stop-opacity="1" stop-color="rgb(86.013794%, 88.444519%, 91.870117%)" offset="0.0976562"/><stop stop-opacity="1" stop-color="rgb(85.464478%, 87.991333%, 91.551208%)" offset="0.101562"/><stop stop-opacity="1" stop-color="rgb(84.916687%, 87.538147%, 91.2323%)" offset="0.105469"/><stop stop-opacity="1" stop-color="rgb(84.368896%, 87.084961%, 90.914917%)" offset="0.109375"/><stop stop-opacity="1" stop-color="rgb(83.81958%, 86.631775%, 90.596008%)" offset="0.113281"/><stop stop-opacity="1" stop-color="rgb(83.27179%, 86.178589%, 90.2771%)" offset="0.117188"/><stop stop-opacity="1" stop-color="rgb(82.722473%, 85.725403%, 89.958191%)" offset="0.121094"/><stop stop-opacity="1" stop-color="rgb(82.174683%, 85.272217%, 89.639282%)" offset="0.125"/><stop stop-opacity="1" stop-color="rgb(81.626892%, 84.819031%, 89.320374%)" offset="0.128906"/><stop stop-opacity="1" stop-color="rgb(81.077576%, 84.365845%, 89.001465%)" offset="0.132812"/><stop stop-opacity="1" stop-color="rgb(80.529785%, 83.912659%, 88.682556%)" offset="0.136719"/><stop stop-opacity="1" stop-color="rgb(79.980469%, 83.459473%, 88.363647%)" offset="0.140625"/><stop stop-opacity="1" stop-color="rgb(79.432678%, 83.006287%, 88.044739%)" offset="0.144531"/><stop stop-opacity="1" stop-color="rgb(78.883362%, 82.553101%, 87.727356%)" offset="0.148438"/><stop stop-opacity="1" stop-color="rgb(78.335571%, 82.099915%, 87.408447%)" offset="0.152344"/><stop stop-opacity="1" stop-color="rgb(77.787781%, 81.646729%, 87.089539%)" offset="0.15625"/><stop stop-opacity="1" stop-color="rgb(77.238464%, 81.193542%, 86.77063%)" offset="0.160156"/><stop stop-opacity="1" stop-color="rgb(76.690674%, 80.740356%, 86.451721%)" offset="0.164062"/><stop stop-opacity="1" stop-color="rgb(76.141357%, 80.28717%, 86.132812%)" offset="0.167969"/><stop stop-opacity="1" stop-color="rgb(75.593567%, 79.833984%, 85.813904%)" offset="0.171875"/><stop stop-opacity="1" stop-color="rgb(75.04425%, 79.380798%, 85.494995%)" offset="0.175781"/><stop stop-opacity="1" stop-color="rgb(74.49646%, 78.927612%, 85.176086%)" offset="0.179688"/><stop stop-opacity="1" stop-color="rgb(73.948669%, 78.474426%, 84.857178%)" offset="0.183594"/><stop stop-opacity="1" stop-color="rgb(73.399353%, 78.02124%, 84.539795%)" offset="0.1875"/><stop stop-opacity="1" stop-color="rgb(72.851562%, 77.56958%, 84.220886%)" offset="0.191406"/><stop stop-opacity="1" stop-color="rgb(72.302246%, 77.116394%, 83.901978%)" offset="0.195312"/><stop stop-opacity="1" stop-color="rgb(71.754456%, 76.663208%, 83.583069%)" offset="0.199219"/><stop stop-opacity="1" stop-color="rgb(71.205139%, 76.210022%, 83.26416%)" offset="0.203125"/><stop stop-opacity="1" stop-color="rgb(70.657349%, 75.756836%, 82.945251%)" offset="0.207031"/><stop stop-opacity="1" stop-color="rgb(70.109558%, 75.30365%, 82.626343%)" offset="0.210938"/><stop stop-opacity="1" stop-color="rgb(69.560242%, 74.850464%, 82.307434%)" offset="0.214844"/><stop stop-opacity="1" stop-color="rgb(69.012451%, 74.397278%, 81.988525%)" offset="0.21875"/><stop stop-opacity="1" stop-color="rgb(68.463135%, 73.944092%, 81.671143%)" offset="0.222656"/><stop stop-opacity="1" stop-color="rgb(67.915344%, 73.490906%, 81.352234%)" offset="0.226562"/><stop stop-opacity="1" stop-color="rgb(67.366028%, 73.03772%, 81.033325%)" offset="0.230469"/><stop stop-opacity="1" stop-color="rgb(66.818237%, 72.584534%, 80.714417%)" offset="0.234375"/><stop stop-opacity="1" stop-color="rgb(66.270447%, 72.131348%, 80.395508%)" offset="0.238281"/><stop stop-opacity="1" stop-color="rgb(65.72113%, 71.678162%, 80.076599%)" offset="0.242188"/><stop stop-opacity="1" stop-color="rgb(65.17334%, 71.224976%, 79.75769%)" offset="0.246094"/><stop stop-opacity="1" stop-color="rgb(64.624023%, 70.77179%, 79.438782%)" offset="0.25"/><stop stop-opacity="1" stop-color="rgb(64.076233%, 70.318604%, 79.119873%)" offset="0.253906"/><stop stop-opacity="1" stop-color="rgb(63.528442%, 69.865417%, 78.800964%)" offset="0.257812"/><stop stop-opacity="1" stop-color="rgb(62.979126%, 69.412231%, 78.483582%)" offset="0.261719"/><stop stop-opacity="1" stop-color="rgb(62.431335%, 68.959045%, 78.164673%)" offset="0.265625"/><stop stop-opacity="1" stop-color="rgb(61.882019%, 68.505859%, 77.845764%)" offset="0.269531"/><stop stop-opacity="1" stop-color="rgb(61.334229%, 68.052673%, 77.526855%)" offset="0.273438"/><stop stop-opacity="1" stop-color="rgb(60.784912%, 67.599487%, 77.207947%)" offset="0.277344"/><stop stop-opacity="1" stop-color="rgb(60.237122%, 67.146301%, 76.889038%)" offset="0.28125"/><stop stop-opacity="1" stop-color="rgb(59.689331%, 66.693115%, 76.570129%)" offset="0.285156"/><stop stop-opacity="1" stop-color="rgb(59.140015%, 66.241455%, 76.251221%)" offset="0.289062"/><stop stop-opacity="1" stop-color="rgb(58.592224%, 65.788269%, 75.932312%)" offset="0.292969"/><stop stop-opacity="1" stop-color="rgb(58.042908%, 65.335083%, 75.614929%)" offset="0.296875"/><stop stop-opacity="1" stop-color="rgb(57.495117%, 64.881897%, 75.296021%)" offset="0.300781"/><stop stop-opacity="1" stop-color="rgb(56.945801%, 64.428711%, 74.977112%)" offset="0.304688"/><stop stop-opacity="1" stop-color="rgb(56.39801%, 63.975525%, 74.658203%)" offset="0.308594"/><stop stop-opacity="1" stop-color="rgb(55.85022%, 63.522339%, 74.339294%)" offset="0.3125"/><stop stop-opacity="1" stop-color="rgb(55.300903%, 63.069153%, 74.020386%)" offset="0.316406"/><stop stop-opacity="1" stop-color="rgb(54.753113%, 62.615967%, 73.701477%)" offset="0.320312"/><stop stop-opacity="1" stop-color="rgb(54.203796%, 62.162781%, 73.382568%)" offset="0.324219"/><stop stop-opacity="1" stop-color="rgb(53.656006%, 61.709595%, 73.06366%)" offset="0.328125"/><stop stop-opacity="1" stop-color="rgb(53.106689%, 61.256409%, 72.744751%)" offset="0.332031"/><stop stop-opacity="1" stop-color="rgb(52.558899%, 60.803223%, 72.427368%)" offset="0.335938"/><stop stop-opacity="1" stop-color="rgb(52.011108%, 60.350037%, 72.108459%)" offset="0.339844"/><stop stop-opacity="1" stop-color="rgb(51.461792%, 59.896851%, 71.789551%)" offset="0.34375"/><stop stop-opacity="1" stop-color="rgb(50.914001%, 59.443665%, 71.470642%)" offset="0.347656"/><stop stop-opacity="1" stop-color="rgb(50.364685%, 58.990479%, 71.151733%)" offset="0.351562"/><stop stop-opacity="1" stop-color="rgb(49.816895%, 58.537292%, 70.832825%)" offset="0.355469"/><stop stop-opacity="1" stop-color="rgb(49.267578%, 58.084106%, 70.513916%)" offset="0.359375"/><stop stop-opacity="1" stop-color="rgb(48.719788%, 57.63092%, 70.195007%)" offset="0.363281"/><stop stop-opacity="1" stop-color="rgb(48.171997%, 57.177734%, 69.876099%)" offset="0.367188"/><stop stop-opacity="1" stop-color="rgb(47.622681%, 56.724548%, 69.55719%)" offset="0.371094"/><stop stop-opacity="1" stop-color="rgb(47.07489%, 56.271362%, 69.239807%)" offset="0.375"/><stop stop-opacity="1" stop-color="rgb(46.525574%, 55.818176%, 68.920898%)" offset="0.378906"/><stop stop-opacity="1" stop-color="rgb(45.977783%, 55.36499%, 68.60199%)" offset="0.382812"/><stop stop-opacity="1" stop-color="rgb(45.429993%, 54.91333%, 68.283081%)" offset="0.386719"/><stop stop-opacity="1" stop-color="rgb(44.880676%, 54.460144%, 67.964172%)" offset="0.390625"/><stop stop-opacity="1" stop-color="rgb(44.332886%, 54.006958%, 67.645264%)" offset="0.394531"/><stop stop-opacity="1" stop-color="rgb(43.783569%, 53.553772%, 67.326355%)" offset="0.398438"/><stop stop-opacity="1" stop-color="rgb(43.235779%, 53.100586%, 67.007446%)" offset="0.402344"/><stop stop-opacity="1" stop-color="rgb(42.686462%, 52.6474%, 66.688538%)" offset="0.40625"/><stop stop-opacity="1" stop-color="rgb(42.138672%, 52.194214%, 66.371155%)" offset="0.410156"/><stop stop-opacity="1" stop-color="rgb(41.590881%, 51.741028%, 66.052246%)" offset="0.414062"/><stop stop-opacity="1" stop-color="rgb(41.041565%, 51.287842%, 65.733337%)" offset="0.417969"/><stop stop-opacity="1" stop-color="rgb(40.493774%, 50.834656%, 65.414429%)" offset="0.421875"/><stop stop-opacity="1" stop-color="rgb(39.944458%, 50.38147%, 65.09552%)" offset="0.425781"/><stop stop-opacity="1" stop-color="rgb(39.396667%, 49.928284%, 64.776611%)" offset="0.429688"/><stop stop-opacity="1" stop-color="rgb(38.847351%, 49.475098%, 64.457703%)" offset="0.433594"/><stop stop-opacity="1" stop-color="rgb(38.299561%, 49.021912%, 64.138794%)" offset="0.4375"/><stop stop-opacity="1" stop-color="rgb(37.75177%, 48.568726%, 63.819885%)" offset="0.441406"/><stop stop-opacity="1" stop-color="rgb(37.202454%, 48.11554%, 63.500977%)" offset="0.445312"/><stop stop-opacity="1" stop-color="rgb(36.654663%, 47.662354%, 63.183594%)" offset="0.449219"/><stop stop-opacity="1" stop-color="rgb(36.105347%, 47.209167%, 62.864685%)" offset="0.453125"/><stop stop-opacity="1" stop-color="rgb(35.557556%, 46.755981%, 62.545776%)" offset="0.457031"/><stop stop-opacity="1" stop-color="rgb(35.00824%, 46.302795%, 62.226868%)" offset="0.460938"/><stop stop-opacity="1" stop-color="rgb(34.460449%, 45.849609%, 61.907959%)" offset="0.464844"/><stop stop-opacity="1" stop-color="rgb(33.912659%, 45.396423%, 61.58905%)" offset="0.46875"/><stop stop-opacity="1" stop-color="rgb(33.363342%, 44.943237%, 61.270142%)" offset="0.472656"/><stop stop-opacity="1" stop-color="rgb(32.815552%, 44.490051%, 60.951233%)" offset="0.476562"/><stop stop-opacity="1" stop-color="rgb(32.266235%, 44.036865%, 60.632324%)" offset="0.480469"/><stop stop-opacity="1" stop-color="rgb(31.718445%, 43.585205%, 60.314941%)" offset="0.484375"/><stop stop-opacity="1" stop-color="rgb(31.170654%, 43.132019%, 59.996033%)" offset="0.488281"/><stop stop-opacity="1" stop-color="rgb(30.621338%, 42.678833%, 59.677124%)" offset="0.492188"/><stop stop-opacity="1" stop-color="rgb(30.073547%, 42.225647%, 59.358215%)" offset="0.496094"/><stop stop-opacity="1" stop-color="rgb(29.736328%, 41.882324%, 59.016418%)" offset="0.5"/><stop stop-opacity="1" stop-color="rgb(29.60968%, 41.648865%, 58.651733%)" offset="0.503906"/><stop stop-opacity="1" stop-color="rgb(29.484558%, 41.416931%, 58.287048%)" offset="0.507812"/><stop stop-opacity="1" stop-color="rgb(29.359436%, 41.183472%, 57.922363%)" offset="0.511719"/><stop stop-opacity="1" stop-color="rgb(29.232788%, 40.951538%, 57.556152%)" offset="0.515625"/><stop stop-opacity="1" stop-color="rgb(29.107666%, 40.718079%, 57.191467%)" offset="0.519531"/><stop stop-opacity="1" stop-color="rgb(28.981018%, 40.486145%, 56.826782%)" offset="0.523438"/><stop stop-opacity="1" stop-color="rgb(28.855896%, 40.252686%, 56.462097%)" offset="0.527344"/><stop stop-opacity="1" stop-color="rgb(28.729248%, 40.019226%, 56.097412%)" offset="0.53125"/><stop stop-opacity="1" stop-color="rgb(28.604126%, 39.787292%, 55.732727%)" offset="0.535156"/><stop stop-opacity="1" stop-color="rgb(28.477478%, 39.553833%, 55.368042%)" offset="0.539062"/><stop stop-opacity="1" stop-color="rgb(28.352356%, 39.321899%, 55.003357%)" offset="0.542969"/><stop stop-opacity="1" stop-color="rgb(28.227234%, 39.08844%, 54.638672%)" offset="0.546875"/><stop stop-opacity="1" stop-color="rgb(28.100586%, 38.856506%, 54.272461%)" offset="0.550781"/><stop stop-opacity="1" stop-color="rgb(27.975464%, 38.623047%, 53.907776%)" offset="0.554688"/><stop stop-opacity="1" stop-color="rgb(27.848816%, 38.389587%, 53.543091%)" offset="0.558594"/><stop stop-opacity="1" stop-color="rgb(27.723694%, 38.157654%, 53.178406%)" offset="0.5625"/><stop stop-opacity="1" stop-color="rgb(27.597046%, 37.924194%, 52.813721%)" offset="0.566406"/><stop stop-opacity="1" stop-color="rgb(27.471924%, 37.692261%, 52.449036%)" offset="0.570312"/><stop stop-opacity="1" stop-color="rgb(27.346802%, 37.458801%, 52.084351%)" offset="0.574219"/><stop stop-opacity="1" stop-color="rgb(27.220154%, 37.226868%, 51.719666%)" offset="0.578125"/><stop stop-opacity="1" stop-color="rgb(27.095032%, 36.993408%, 51.35498%)" offset="0.582031"/><stop stop-opacity="1" stop-color="rgb(26.968384%, 36.759949%, 50.990295%)" offset="0.585938"/><stop stop-opacity="1" stop-color="rgb(26.843262%, 36.528015%, 50.624084%)" offset="0.589844"/><stop stop-opacity="1" stop-color="rgb(26.716614%, 36.294556%, 50.259399%)" offset="0.59375"/><stop stop-opacity="1" stop-color="rgb(26.591492%, 36.062622%, 49.894714%)" offset="0.597656"/><stop stop-opacity="1" stop-color="rgb(26.46637%, 35.829163%, 49.530029%)" offset="0.601562"/><stop stop-opacity="1" stop-color="rgb(26.339722%, 35.595703%, 49.165344%)" offset="0.605469"/><stop stop-opacity="1" stop-color="rgb(26.2146%, 35.36377%, 48.800659%)" offset="0.609375"/><stop stop-opacity="1" stop-color="rgb(26.087952%, 35.13031%, 48.435974%)" offset="0.613281"/><stop stop-opacity="1" stop-color="rgb(25.96283%, 34.898376%, 48.071289%)" offset="0.617188"/><stop stop-opacity="1" stop-color="rgb(25.836182%, 34.664917%, 47.706604%)" offset="0.621094"/><stop stop-opacity="1" stop-color="rgb(25.71106%, 34.432983%, 47.340393%)" offset="0.625"/><stop stop-opacity="1" stop-color="rgb(25.585938%, 34.199524%, 46.975708%)" offset="0.628906"/><stop stop-opacity="1" stop-color="rgb(25.45929%, 33.966064%, 46.611023%)" offset="0.632812"/><stop stop-opacity="1" stop-color="rgb(25.334167%, 33.734131%, 46.246338%)" offset="0.636719"/><stop stop-opacity="1" stop-color="rgb(25.20752%, 33.500671%, 45.881653%)" offset="0.640625"/><stop stop-opacity="1" stop-color="rgb(25.082397%, 33.268738%, 45.516968%)" offset="0.644531"/><stop stop-opacity="1" stop-color="rgb(24.95575%, 33.035278%, 45.152283%)" offset="0.648438"/><stop stop-opacity="1" stop-color="rgb(24.830627%, 32.803345%, 44.787598%)" offset="0.652344"/><stop stop-opacity="1" stop-color="rgb(24.705505%, 32.569885%, 44.422913%)" offset="0.65625"/><stop stop-opacity="1" stop-color="rgb(24.578857%, 32.336426%, 44.058228%)" offset="0.660156"/><stop stop-opacity="1" stop-color="rgb(24.453735%, 32.104492%, 43.692017%)" offset="0.664062"/><stop stop-opacity="1" stop-color="rgb(24.327087%, 31.871033%, 43.327332%)" offset="0.667969"/><stop stop-opacity="1" stop-color="rgb(24.201965%, 31.639099%, 42.962646%)" offset="0.671875"/><stop stop-opacity="1" stop-color="rgb(24.075317%, 31.40564%, 42.597961%)" offset="0.675781"/><stop stop-opacity="1" stop-color="rgb(23.950195%, 31.173706%, 42.233276%)" offset="0.679688"/><stop stop-opacity="1" stop-color="rgb(23.823547%, 30.940247%, 41.868591%)" offset="0.683594"/><stop stop-opacity="1" stop-color="rgb(23.698425%, 30.706787%, 41.503906%)" offset="0.6875"/><stop stop-opacity="1" stop-color="rgb(23.573303%, 30.474854%, 41.139221%)" offset="0.691406"/><stop stop-opacity="1" stop-color="rgb(23.446655%, 30.241394%, 40.774536%)" offset="0.695312"/><stop stop-opacity="1" stop-color="rgb(23.321533%, 30.00946%, 40.409851%)" offset="0.699219"/><stop stop-opacity="1" stop-color="rgb(23.194885%, 29.776001%, 40.04364%)" offset="0.703125"/><stop stop-opacity="1" stop-color="rgb(23.069763%, 29.544067%, 39.678955%)" offset="0.707031"/><stop stop-opacity="1" stop-color="rgb(22.943115%, 29.310608%, 39.31427%)" offset="0.710938"/><stop stop-opacity="1" stop-color="rgb(22.817993%, 29.077148%, 38.949585%)" offset="0.714844"/><stop stop-opacity="1" stop-color="rgb(22.692871%, 28.845215%, 38.5849%)" offset="0.71875"/><stop stop-opacity="1" stop-color="rgb(22.566223%, 28.611755%, 38.220215%)" offset="0.722656"/><stop stop-opacity="1" stop-color="rgb(22.441101%, 28.379822%, 37.85553%)" offset="0.726562"/><stop stop-opacity="1" stop-color="rgb(22.314453%, 28.146362%, 37.490845%)" offset="0.730469"/><stop stop-opacity="1" stop-color="rgb(22.189331%, 27.912903%, 37.12616%)" offset="0.734375"/><stop stop-opacity="1" stop-color="rgb(22.062683%, 27.680969%, 36.759949%)" offset="0.738281"/><stop stop-opacity="1" stop-color="rgb(21.937561%, 27.44751%, 36.395264%)" offset="0.742188"/><stop stop-opacity="1" stop-color="rgb(21.812439%, 27.215576%, 36.030579%)" offset="0.746094"/><stop stop-opacity="1" stop-color="rgb(21.685791%, 26.982117%, 35.665894%)" offset="0.75"/><stop stop-opacity="1" stop-color="rgb(21.560669%, 26.750183%, 35.301208%)" offset="0.753906"/><stop stop-opacity="1" stop-color="rgb(21.434021%, 26.516724%, 34.936523%)" offset="0.757812"/><stop stop-opacity="1" stop-color="rgb(21.308899%, 26.283264%, 34.571838%)" offset="0.761719"/><stop stop-opacity="1" stop-color="rgb(21.182251%, 26.051331%, 34.207153%)" offset="0.765625"/><stop stop-opacity="1" stop-color="rgb(21.057129%, 25.817871%, 33.842468%)" offset="0.769531"/><stop stop-opacity="1" stop-color="rgb(20.932007%, 25.585938%, 33.477783%)" offset="0.773438"/><stop stop-opacity="1" stop-color="rgb(20.805359%, 25.352478%, 33.111572%)" offset="0.777344"/><stop stop-opacity="1" stop-color="rgb(20.680237%, 25.120544%, 32.746887%)" offset="0.78125"/><stop stop-opacity="1" stop-color="rgb(20.553589%, 24.887085%, 32.382202%)" offset="0.785156"/><stop stop-opacity="1" stop-color="rgb(20.428467%, 24.653625%, 32.017517%)" offset="0.789062"/><stop stop-opacity="1" stop-color="rgb(20.301819%, 24.421692%, 31.652832%)" offset="0.792969"/><stop stop-opacity="1" stop-color="rgb(20.176697%, 24.188232%, 31.288147%)" offset="0.796875"/><stop stop-opacity="1" stop-color="rgb(20.051575%, 23.956299%, 30.923462%)" offset="0.800781"/><stop stop-opacity="1" stop-color="rgb(19.924927%, 23.722839%, 30.558777%)" offset="0.804688"/><stop stop-opacity="1" stop-color="rgb(19.799805%, 23.490906%, 30.194092%)" offset="0.808594"/><stop stop-opacity="1" stop-color="rgb(19.673157%, 23.257446%, 29.827881%)" offset="0.8125"/><stop stop-opacity="1" stop-color="rgb(19.548035%, 23.023987%, 29.463196%)" offset="0.816406"/><stop stop-opacity="1" stop-color="rgb(19.421387%, 22.792053%, 29.098511%)" offset="0.820312"/><stop stop-opacity="1" stop-color="rgb(19.296265%, 22.558594%, 28.733826%)" offset="0.824219"/><stop stop-opacity="1" stop-color="rgb(19.171143%, 22.32666%, 28.369141%)" offset="0.828125"/><stop stop-opacity="1" stop-color="rgb(19.044495%, 22.093201%, 28.004456%)" offset="0.832031"/><stop stop-opacity="1" stop-color="rgb(18.919373%, 21.861267%, 27.639771%)" offset="0.835938"/><stop stop-opacity="1" stop-color="rgb(18.792725%, 21.627808%, 27.275085%)" offset="0.839844"/><stop stop-opacity="1" stop-color="rgb(18.667603%, 21.394348%, 26.9104%)" offset="0.84375"/><stop stop-opacity="1" stop-color="rgb(18.540955%, 21.162415%, 26.545715%)" offset="0.847656"/><stop stop-opacity="1" stop-color="rgb(18.415833%, 20.928955%, 26.179504%)" offset="0.851562"/><stop stop-opacity="1" stop-color="rgb(18.289185%, 20.697021%, 25.814819%)" offset="0.855469"/><stop stop-opacity="1" stop-color="rgb(18.164062%, 20.463562%, 25.450134%)" offset="0.859375"/><stop stop-opacity="1" stop-color="rgb(18.03894%, 20.230103%, 25.085449%)" offset="0.863281"/><stop stop-opacity="1" stop-color="rgb(17.912292%, 19.998169%, 24.720764%)" offset="0.867188"/><stop stop-opacity="1" stop-color="rgb(17.78717%, 19.764709%, 24.356079%)" offset="0.871094"/><stop stop-opacity="1" stop-color="rgb(17.660522%, 19.532776%, 23.991394%)" offset="0.875"/><stop stop-opacity="1" stop-color="rgb(17.5354%, 19.299316%, 23.626709%)" offset="0.878906"/><stop stop-opacity="1" stop-color="rgb(17.408752%, 19.067383%, 23.262024%)" offset="0.882812"/><stop stop-opacity="1" stop-color="rgb(17.28363%, 18.833923%, 22.897339%)" offset="0.886719"/><stop stop-opacity="1" stop-color="rgb(17.158508%, 18.600464%, 22.531128%)" offset="0.890625"/><stop stop-opacity="1" stop-color="rgb(17.03186%, 18.36853%, 22.166443%)" offset="0.894531"/><stop stop-opacity="1" stop-color="rgb(16.906738%, 18.135071%, 21.801758%)" offset="0.898438"/><stop stop-opacity="1" stop-color="rgb(16.78009%, 17.903137%, 21.437073%)" offset="0.902344"/><stop stop-opacity="1" stop-color="rgb(16.654968%, 17.669678%, 21.072388%)" offset="0.90625"/><stop stop-opacity="1" stop-color="rgb(16.52832%, 17.437744%, 20.707703%)" offset="0.910156"/><stop stop-opacity="1" stop-color="rgb(16.403198%, 17.204285%, 20.343018%)" offset="0.914062"/><stop stop-opacity="1" stop-color="rgb(16.278076%, 16.970825%, 19.978333%)" offset="0.917969"/><stop stop-opacity="1" stop-color="rgb(16.151428%, 16.738892%, 19.613647%)" offset="0.921875"/><stop stop-opacity="1" stop-color="rgb(16.026306%, 16.505432%, 19.247437%)" offset="0.925781"/><stop stop-opacity="1" stop-color="rgb(15.899658%, 16.273499%, 18.882751%)" offset="0.929688"/><stop stop-opacity="1" stop-color="rgb(15.774536%, 16.040039%, 18.518066%)" offset="0.933594"/><stop stop-opacity="1" stop-color="rgb(15.647888%, 15.808105%, 18.153381%)" offset="0.9375"/><stop stop-opacity="1" stop-color="rgb(15.522766%, 15.574646%, 17.788696%)" offset="0.941406"/><stop stop-opacity="1" stop-color="rgb(15.397644%, 15.341187%, 17.424011%)" offset="0.945312"/><stop stop-opacity="1" stop-color="rgb(15.270996%, 15.109253%, 17.059326%)" offset="0.949219"/><stop stop-opacity="1" stop-color="rgb(15.145874%, 14.875793%, 16.694641%)" offset="0.953125"/><stop stop-opacity="1" stop-color="rgb(15.019226%, 14.64386%, 16.329956%)" offset="0.957031"/><stop stop-opacity="1" stop-color="rgb(14.894104%, 14.4104%, 15.965271%)" offset="0.960938"/><stop stop-opacity="1" stop-color="rgb(14.767456%, 14.178467%, 15.59906%)" offset="0.964844"/><stop stop-opacity="1" stop-color="rgb(14.642334%, 13.945007%, 15.234375%)" offset="0.96875"/><stop stop-opacity="1" stop-color="rgb(14.517212%, 13.711548%, 14.86969%)" offset="0.972656"/><stop stop-opacity="1" stop-color="rgb(14.390564%, 13.479614%, 14.505005%)" offset="0.976562"/><stop stop-opacity="1" stop-color="rgb(14.265442%, 13.246155%, 14.14032%)" offset="0.980469"/><stop stop-opacity="1" stop-color="rgb(14.138794%, 13.014221%, 13.775635%)" offset="0.984375"/><stop stop-opacity="1" stop-color="rgb(14.013672%, 12.780762%, 13.41095%)" offset="0.988281"/><stop stop-opacity="1" stop-color="rgb(13.887024%, 12.547302%, 13.046265%)" offset="0.992188"/><stop stop-opacity="1" stop-color="rgb(13.761902%, 12.315369%, 12.68158%)" offset="0.996094"/><stop stop-opacity="1" stop-color="rgb(13.699341%, 12.199402%, 12.5%)" offset="1"/></radialGradient></defs><g clip-path="url(#1b40b2d930)"><path fill="#ffffff" d="M 0 0.0429688 L 856.5 0.0429688 L 856.5 578.292969 L 0 578.292969 Z M 0 0.0429688 " fill-opacity="1" fill-rule="nonzero"/><path fill="#ffffff" d="M 0 0.0429688 L 856.5 0.0429688 L 856.5 570.792969 L 0 570.792969 Z M 0 0.0429688 " fill-opacity="1" fill-rule="nonzero"/><path fill="#ebebeb" d="M 0 0.0429688 L 856.5 0.0429688 L 856.5 570.792969 L 0 570.792969 Z M 0 0.0429688 " fill-opacity="1" fill-rule="nonzero"/></g><g clip-path="url(#b10745ffd2)"><g clip-path="url(#9f3bc367c2)"><path fill="url(#6cbc2ef98a)" d="M 203.921875 167.464844 L 203.921875 403.054688 L 652.421875 403.054688 L 652.421875 167.464844 Z M 203.921875 167.464844 " fill-rule="nonzero"/></g></g><path fill="#6181b6" d="M 643.660156 285.257812 C 643.660156 287.042969 643.574219 288.828125 643.402344 290.609375 C 643.226562 292.390625 642.96875 294.171875 642.625 295.945312 C 642.277344 297.722656 641.847656 299.492188 641.328125 301.257812 C 640.8125 303.023438 640.207031 304.78125 639.519531 306.53125 C 638.832031 308.28125 638.058594 310.023438 637.203125 311.753906 C 636.347656 313.484375 635.40625 315.203125 634.382812 316.914062 C 633.359375 318.621094 632.253906 320.3125 631.0625 321.996094 C 629.875 323.675781 628.605469 325.339844 627.257812 326.988281 C 625.90625 328.636719 624.480469 330.265625 622.972656 331.878906 C 621.464844 333.492188 619.878906 335.085938 618.214844 336.660156 C 616.554688 338.234375 614.816406 339.789062 613.003906 341.316406 C 611.191406 342.847656 609.304688 344.355469 607.34375 345.839844 C 605.382812 347.324219 603.355469 348.78125 601.253906 350.214844 C 599.152344 351.648438 596.984375 353.054688 594.746094 354.433594 C 592.507812 355.816406 590.207031 357.164062 587.839844 358.488281 C 585.46875 359.808594 583.039062 361.101562 580.546875 362.363281 C 578.050781 363.625 575.496094 364.855469 572.886719 366.054688 C 570.273438 367.253906 567.601562 368.417969 564.875 369.550781 C 562.148438 370.683594 559.371094 371.78125 556.539062 372.84375 C 553.707031 373.90625 550.824219 374.933594 547.890625 375.925781 C 544.957031 376.917969 541.980469 377.871094 538.953125 378.789062 C 535.929688 379.707031 532.863281 380.585938 529.75 381.425781 C 526.640625 382.265625 523.492188 383.070312 520.304688 383.832031 C 517.117188 384.59375 513.894531 385.320312 510.636719 386 C 507.375 386.683594 504.085938 387.328125 500.765625 387.925781 C 497.445312 388.527344 494.097656 389.089844 490.722656 389.605469 C 487.347656 390.125 483.953125 390.601562 480.53125 391.035156 C 477.109375 391.46875 473.667969 391.859375 470.210938 392.207031 C 466.75 392.554688 463.277344 392.859375 459.789062 393.121094 C 456.300781 393.382812 452.800781 393.601562 449.292969 393.777344 C 445.78125 393.953125 442.265625 394.082031 438.746094 394.171875 C 435.222656 394.257812 431.695312 394.300781 428.171875 394.300781 C 424.644531 394.300781 421.121094 394.257812 417.597656 394.171875 C 414.074219 394.082031 410.558594 393.953125 407.046875 393.777344 C 403.539062 393.601562 400.039062 393.382812 396.550781 393.121094 C 393.0625 392.859375 389.589844 392.554688 386.128906 392.207031 C 382.671875 391.859375 379.230469 391.46875 375.8125 391.035156 C 372.390625 390.601562 368.992188 390.125 365.617188 389.605469 C 362.242188 389.089844 358.894531 388.527344 355.574219 387.925781 C 352.253906 387.328125 348.964844 386.683594 345.707031 386 C 342.449219 385.320312 339.226562 384.59375 336.035156 383.832031 C 332.847656 383.070312 329.699219 382.265625 326.589844 381.425781 C 323.480469 380.585938 320.410156 379.707031 317.386719 378.789062 C 314.363281 377.871094 311.382812 376.917969 308.449219 375.925781 C 305.519531 374.933594 302.636719 373.90625 299.804688 372.84375 C 296.96875 371.78125 294.191406 370.683594 291.464844 369.550781 C 288.738281 368.417969 286.070312 367.253906 283.457031 366.054688 C 280.84375 364.855469 278.289062 363.625 275.796875 362.363281 C 273.300781 361.101562 270.871094 359.808594 268.503906 358.488281 C 266.132812 357.164062 263.832031 355.816406 261.59375 354.433594 C 259.355469 353.054688 257.1875 351.648438 255.085938 350.214844 C 252.988281 348.78125 250.957031 347.324219 248.996094 345.839844 C 247.039062 344.355469 245.152344 342.847656 243.339844 341.316406 C 241.523438 339.789062 239.789062 338.234375 238.125 336.660156 C 236.460938 335.085938 234.878906 333.492188 233.371094 331.878906 C 231.863281 330.265625 230.433594 328.636719 229.082031 326.988281 C 227.734375 325.339844 226.464844 323.675781 225.277344 321.996094 C 224.089844 320.3125 222.984375 318.621094 221.960938 316.914062 C 220.933594 315.203125 219.996094 313.484375 219.136719 311.753906 C 218.28125 310.023438 217.507812 308.28125 216.820312 306.53125 C 216.132812 304.78125 215.53125 303.023438 215.011719 301.257812 C 214.496094 299.492188 214.0625 297.722656 213.71875 295.945312 C 213.371094 294.171875 213.113281 292.390625 212.941406 290.609375 C 212.765625 288.828125 212.679688 287.042969 212.679688 285.257812 C 212.679688 283.472656 212.765625 281.691406 212.941406 279.910156 C 213.113281 278.125 213.371094 276.347656 213.71875 274.570312 C 214.0625 272.792969 214.496094 271.023438 215.011719 269.257812 C 215.53125 267.492188 216.132812 265.734375 216.820312 263.984375 C 217.507812 262.234375 218.28125 260.496094 219.136719 258.761719 C 219.996094 257.03125 220.933594 255.3125 221.960938 253.605469 C 222.984375 251.898438 224.089844 250.203125 225.277344 248.523438 C 226.464844 246.84375 227.734375 245.179688 229.082031 243.53125 C 230.433594 241.882812 231.863281 240.25 233.371094 238.636719 C 234.878906 237.023438 236.460938 235.429688 238.125 233.855469 C 239.789062 232.28125 241.523438 230.730469 243.339844 229.199219 C 245.152344 227.667969 247.039062 226.160156 248.996094 224.675781 C 250.957031 223.195312 252.988281 221.734375 255.085938 220.300781 C 257.1875 218.867188 259.355469 217.460938 261.59375 216.082031 C 263.832031 214.703125 266.132812 213.351562 268.503906 212.03125 C 270.871094 210.707031 273.300781 209.414062 275.796875 208.152344 C 278.289062 206.890625 280.84375 205.660156 283.457031 204.464844 C 286.070312 203.265625 288.738281 202.097656 291.464844 200.96875 C 294.191406 199.835938 296.96875 198.738281 299.804688 197.675781 C 302.636719 196.613281 305.519531 195.585938 308.449219 194.59375 C 311.382812 193.601562 314.363281 192.648438 317.386719 191.730469 C 320.410156 190.8125 323.480469 189.933594 326.589844 189.089844 C 329.699219 188.25 332.847656 187.449219 336.035156 186.683594 C 339.226562 185.921875 342.449219 185.199219 345.707031 184.515625 C 348.964844 183.832031 352.253906 183.191406 355.574219 182.589844 C 358.894531 181.988281 362.242188 181.429688 365.617188 180.910156 C 368.992188 180.394531 372.390625 179.917969 375.8125 179.484375 C 379.230469 179.050781 382.671875 178.660156 386.128906 178.3125 C 389.589844 177.960938 393.0625 177.65625 396.550781 177.394531 C 400.039062 177.132812 403.539062 176.914062 407.046875 176.742188 C 410.558594 176.566406 414.074219 176.433594 417.597656 176.347656 C 421.121094 176.257812 424.644531 176.214844 428.171875 176.214844 C 431.695312 176.214844 435.222656 176.257812 438.746094 176.347656 C 442.265625 176.433594 445.78125 176.566406 449.292969 176.742188 C 452.800781 176.914062 456.300781 177.132812 459.789062 177.394531 C 463.277344 177.65625 466.75 177.960938 470.210938 178.3125 C 473.667969 178.660156 477.109375 179.050781 480.53125 179.484375 C 483.953125 179.917969 487.347656 180.394531 490.722656 180.910156 C 494.097656 181.429688 497.445312 181.988281 500.765625 182.589844 C 504.085938 183.191406 507.375 183.832031 510.636719 184.515625 C 513.894531 185.199219 517.117188 185.921875 520.304688 186.683594 C 523.492188 187.449219 526.640625 188.25 529.75 189.089844 C 532.863281 189.933594 535.929688 190.8125 538.953125 191.730469 C 541.980469 192.648438 544.957031 193.601562 547.890625 194.59375 C 550.824219 195.585938 553.707031 196.613281 556.539062 197.675781 C 559.371094 198.738281 562.148438 199.835938 564.875 200.96875 C 567.601562 202.097656 570.273438 203.265625 572.886719 204.464844 C 575.496094 205.660156 578.050781 206.890625 580.546875 208.152344 C 583.039062 209.414062 585.46875 210.707031 587.839844 212.03125 C 590.207031 213.351562 592.507812 214.703125 594.746094 216.082031 C 596.984375 217.460938 599.152344 218.867188 601.253906 220.300781 C 603.355469 221.734375 605.382812 223.195312 607.34375 224.675781 C 609.304688 226.160156 611.191406 227.667969 613.003906 229.199219 C 614.816406 230.730469 616.554688 232.28125 618.214844 233.855469 C 619.878906 235.429688 621.464844 237.023438 622.972656 238.636719 C 624.480469 240.25 625.90625 241.882812 627.257812 243.53125 C 628.605469 245.179688 629.875 246.84375 631.0625 248.523438 C 632.253906 250.203125 633.359375 251.898438 634.382812 253.605469 C 635.40625 255.3125 636.347656 257.03125 637.203125 258.761719 C 638.058594 260.496094 638.832031 262.234375 639.519531 263.984375 C 640.207031 265.734375 640.8125 267.492188 641.328125 269.257812 C 641.847656 271.023438 642.277344 272.792969 642.625 274.570312 C 642.96875 276.347656 643.226562 278.125 643.402344 279.910156 C 643.574219 281.691406 643.660156 283.472656 643.660156 285.257812 Z M 643.660156 285.257812 " fill-opacity="1" fill-rule="nonzero"/><path fill="#ffffff" d="M 471.792969 320.613281 L 482.480469 265.65625 C 484.933594 253.226562 482.832031 243.953125 476.523438 238.175781 C 470.394531 232.574219 459.882812 229.773438 444.464844 229.773438 L 425.894531 229.773438 L 431.148438 202.46875 C 431.324219 201.417969 431.148438 200.371094 430.449219 199.496094 C 429.746094 198.621094 428.871094 198.269531 427.820312 198.269531 L 402.242188 198.269531 C 400.488281 198.269531 399.089844 199.496094 398.738281 201.070312 L 387.351562 259.355469 C 386.300781 252.703125 383.847656 247.101562 379.640625 242.550781 C 372.109375 233.976562 360.371094 229.597656 344.425781 229.597656 L 295.199219 229.597656 C 293.445312 229.597656 292.042969 230.824219 291.695312 232.398438 L 268.742188 350.71875 C 268.566406 351.769531 268.742188 352.820312 269.445312 353.695312 C 270.144531 354.570312 271.019531 354.921875 272.070312 354.921875 L 297.824219 354.921875 C 299.578125 354.921875 300.980469 353.695312 301.328125 352.121094 L 306.933594 323.589844 L 326.03125 323.589844 C 336.019531 323.589844 344.601562 322.539062 351.085938 320.441406 C 357.917969 318.164062 364.050781 314.488281 369.480469 309.414062 C 373.859375 305.386719 377.539062 300.835938 380.34375 295.933594 L 375.789062 319.5625 C 375.613281 320.613281 375.789062 321.664062 376.488281 322.539062 C 377.1875 323.414062 378.066406 323.765625 379.117188 323.765625 L 404.695312 323.765625 C 406.445312 323.765625 407.847656 322.539062 408.199219 320.964844 L 420.8125 256.203125 L 438.332031 256.203125 C 445.867188 256.203125 447.96875 257.605469 448.667969 258.304688 C 449.195312 258.828125 450.246094 260.929688 449.019531 267.40625 L 438.859375 319.738281 C 438.683594 320.789062 438.859375 321.839844 439.558594 322.714844 C 440.257812 323.589844 441.136719 323.941406 442.1875 323.941406 L 468.464844 323.941406 C 470.042969 323.414062 471.445312 322.191406 471.792969 320.613281 Z M 353.363281 275.105469 C 351.785156 283.332031 348.808594 289.285156 344.425781 292.609375 C 340.046875 295.933594 332.863281 297.6875 323.402344 297.6875 L 312.015625 297.6875 L 320.25 255.328125 L 334.964844 255.328125 C 345.828125 255.328125 350.207031 257.605469 351.960938 259.53125 C 354.238281 262.328125 354.765625 267.753906 353.363281 275.105469 Z M 353.363281 275.105469 " fill-opacity="1" fill-rule="nonzero"/><path fill="#ffffff" d="M 581.117188 242.550781 C 573.582031 233.976562 561.84375 229.597656 545.902344 229.597656 L 496.320312 229.597656 C 494.570312 229.597656 493.167969 230.824219 492.816406 232.398438 L 469.867188 350.542969 C 469.691406 351.59375 469.867188 352.644531 470.566406 353.519531 C 471.269531 354.394531 472.144531 354.746094 473.195312 354.746094 L 498.949219 354.746094 C 500.703125 354.746094 502.101562 353.519531 502.453125 351.945312 L 508.058594 323.414062 L 527.15625 323.414062 C 537.140625 323.414062 545.726562 322.363281 552.207031 320.265625 C 559.042969 317.988281 565.171875 314.3125 570.605469 309.238281 C 575.160156 305.035156 579.015625 300.3125 581.816406 295.234375 C 584.621094 290.160156 586.722656 284.558594 587.949219 278.433594 C 590.925781 263.203125 588.648438 251.304688 581.117188 242.550781 Z M 554.3125 275.105469 C 552.734375 283.332031 549.757812 289.285156 545.375 292.609375 C 540.996094 295.933594 533.8125 297.6875 524.351562 297.6875 L 512.964844 297.6875 L 521.199219 255.328125 L 535.914062 255.328125 C 546.777344 255.328125 551.15625 257.605469 552.910156 259.53125 C 555.363281 262.328125 555.886719 267.753906 554.3125 275.105469 Z M 554.3125 275.105469 " fill-opacity="1" fill-rule="nonzero"/><path fill="#000004" d="M 334.964844 251.828125 C 344.777344 251.828125 351.261719 253.578125 354.589844 257.253906 C 357.917969 260.929688 358.617188 267.054688 356.867188 275.808594 C 355.113281 284.910156 351.609375 291.558594 346.53125 295.410156 C 341.449219 299.261719 333.742188 301.1875 323.402344 301.1875 L 307.8125 301.1875 L 317.445312 251.828125 Z M 272.246094 351.246094 L 298 351.246094 L 304.132812 319.914062 L 326.207031 319.914062 C 336.019531 319.914062 343.902344 318.863281 350.207031 316.765625 C 356.515625 314.664062 362.121094 311.339844 367.378906 306.4375 C 371.757812 302.410156 375.261719 298.035156 377.890625 293.308594 C 380.515625 288.585938 382.445312 283.332031 383.496094 277.558594 C 386.300781 263.554688 384.195312 252.703125 377.363281 244.828125 C 370.53125 236.949219 359.667969 233.101562 344.777344 233.101562 L 295.199219 233.101562 Z M 272.246094 351.246094 " fill-opacity="1" fill-rule="nonzero"/><path fill="#000004" d="M 402.417969 201.769531 L 427.996094 201.769531 L 421.863281 233.101562 L 444.640625 233.101562 C 459.003906 233.101562 468.816406 235.550781 474.246094 240.625 C 479.679688 245.703125 481.253906 253.753906 479.152344 264.957031 L 468.464844 319.914062 L 442.535156 319.914062 L 452.699219 267.582031 C 453.925781 261.628906 453.398438 257.605469 451.472656 255.503906 C 449.542969 253.402344 445.164062 252.179688 438.683594 252.179688 L 418.183594 252.179688 L 405.042969 319.914062 L 379.464844 319.914062 Z M 402.417969 201.769531 " fill-opacity="1" fill-rule="nonzero"/><path fill="#000004" d="M 535.914062 251.828125 C 545.726562 251.828125 552.207031 253.578125 555.539062 257.253906 C 558.867188 260.929688 559.566406 267.054688 557.816406 275.808594 C 556.0625 284.910156 552.558594 291.558594 547.480469 295.410156 C 542.398438 299.261719 534.6875 301.1875 524.351562 301.1875 L 508.761719 301.1875 L 518.394531 251.828125 Z M 473.195312 351.246094 L 498.949219 351.246094 L 505.082031 319.914062 L 527.15625 319.914062 C 536.96875 319.914062 544.851562 318.863281 551.15625 316.765625 C 557.464844 314.664062 563.070312 311.339844 568.328125 306.4375 C 572.707031 302.410156 576.210938 298.035156 578.839844 293.308594 C 581.464844 288.585938 583.394531 283.332031 584.445312 277.558594 C 587.246094 263.554688 585.144531 252.703125 578.3125 244.828125 C 571.480469 236.949219 560.617188 233.101562 545.726562 233.101562 L 496.144531 233.101562 Z M 473.195312 351.246094 " fill-opacity="1" fill-rule="nonzero"/></svg>