<svg xmlns="http://www.w3.org/2000/svg" xmlns:xlink="http://www.w3.org/1999/xlink" width="1142" zoomAndPan="magnify" viewBox="0 0 856.5 570.749988" height="761" preserveAspectRatio="xMidYMid meet" version="1.0"><defs><clipPath id="d267b339eb"><path d="M 0 0.0429688 L 856 0.0429688 L 856 570.457031 L 0 570.457031 Z M 0 0.0429688 " clip-rule="nonzero"/></clipPath><clipPath id="a13e2efe51"><path d="M 226 311 L 394 311 L 394 392.398438 L 226 392.398438 Z M 226 311 " clip-rule="nonzero"/></clipPath></defs><g clip-path="url(#d267b339eb)"><path fill="#ffffff" d="M 0 0.0429688 L 856.5 0.0429688 L 856.5 578.292969 L 0 578.292969 Z M 0 0.0429688 " fill-opacity="1" fill-rule="nonzero"/><path fill="#ffffff" d="M 0 0.0429688 L 856.5 0.0429688 L 856.5 570.792969 L 0 570.792969 Z M 0 0.0429688 " fill-opacity="1" fill-rule="nonzero"/><path fill="#ebebeb" d="M 0 0.0429688 L 856.5 0.0429688 L 856.5 570.792969 L 0 570.792969 Z M 0 0.0429688 " fill-opacity="1" fill-rule="nonzero"/></g><g clip-path="url(#a13e2efe51)"><path fill="#00618a" d="M 226.535156 373.929688 L 239.832031 373.929688 L 239.832031 321.410156 L 260.414062 367.210938 C 262.839844 372.734375 266.164062 374.71875 272.683594 374.71875 C 279.203125 374.71875 282.398438 372.753906 284.828125 367.210938 L 305.414062 321.410156 L 305.414062 373.949219 L 318.710938 373.949219 L 318.710938 321.5 C 318.710938 316.382812 316.660156 313.90625 312.445312 312.628906 C 302.34375 309.472656 295.570312 312.203125 292.503906 319.027344 L 272.304688 364.226562 L 252.742188 319.007812 C 249.804688 312.183594 242.902344 309.453125 232.800781 312.609375 C 228.582031 313.890625 226.535156 316.363281 226.535156 321.480469 Z M 329.757812 331.167969 L 343.050781 331.167969 L 343.050781 360.117188 C 342.925781 361.6875 343.554688 365.378906 350.835938 365.492188 C 354.554688 365.550781 379.515625 365.492188 379.746094 365.492188 L 379.746094 331.023438 L 393.066406 331.023438 C 393.125 331.023438 393.054688 378.023438 393.054688 378.222656 C 393.128906 389.8125 378.683594 392.332031 372.027344 392.527344 L 330.050781 392.527344 L 330.050781 383.574219 L 372.101562 383.574219 C 380.65625 382.664062 379.648438 378.414062 379.648438 376.980469 L 379.648438 373.488281 L 351.394531 373.488281 C 338.246094 373.371094 329.875 367.625 329.773438 361.019531 C 329.761719 360.429688 330.054688 331.453125 329.761719 331.167969 Z M 329.757812 331.167969 " fill-opacity="1" fill-rule="nonzero"/></g><path fill="#e48e00" d="M 403.316406 373.929688 L 441.539062 373.929688 C 446.011719 373.929688 450.359375 372.992188 453.8125 371.371094 C 459.566406 368.730469 462.378906 365.144531 462.378906 360.453125 L 462.378906 350.734375 C 462.378906 346.894531 459.183594 343.3125 452.921875 340.925781 C 449.597656 339.644531 445.507812 338.964844 441.542969 338.964844 L 425.4375 338.964844 C 420.070312 338.964844 417.511719 337.34375 416.871094 333.761719 C 416.746094 333.335938 416.746094 332.972656 416.746094 332.566406 L 416.746094 326.511719 C 416.746094 326.171875 416.746094 325.828125 416.871094 325.402344 C 417.511719 322.671875 418.917969 321.90625 423.648438 321.460938 C 424.03125 321.460938 424.542969 321.371094 424.925781 321.371094 L 462.894531 321.371094 L 462.894531 312.503906 L 425.566406 312.503906 C 420.195312 312.503906 417.386719 312.847656 414.828125 313.613281 C 406.890625 316.085938 403.4375 320.03125 403.4375 326.855469 L 403.4375 334.617188 C 403.4375 340.585938 410.214844 345.703125 421.589844 346.894531 C 422.871094 346.980469 424.148438 347.066406 425.425781 347.066406 L 439.230469 347.066406 C 439.742188 347.066406 440.253906 347.066406 440.636719 347.152344 C 444.855469 347.492188 446.648438 348.261719 447.925781 349.792969 C 448.710938 350.582031 448.949219 351.332031 448.949219 352.160156 L 448.949219 359.921875 C 448.949219 360.859375 448.3125 362.054688 447.03125 363.078125 C 445.882812 364.101562 443.964844 364.78125 441.40625 364.953125 C 440.894531 364.953125 440.511719 365.039062 440 365.039062 L 403.3125 365.039062 L 403.3125 373.910156 Z M 545.3125 358.496094 C 545.3125 367.621094 552.085938 372.738281 565.765625 373.761719 C 567.042969 373.859375 568.320312 373.917969 569.601562 373.929688 L 604.246094 373.929688 L 604.246094 365.0625 L 569.34375 365.0625 C 561.546875 365.0625 558.605469 363.097656 558.605469 358.40625 L 558.605469 312.523438 L 545.3125 312.523438 Z M 470.859375 358.957031 L 470.859375 327.335938 C 470.859375 319.304688 476.496094 314.429688 487.640625 312.894531 C 488.832031 312.722656 490.027344 312.636719 491.230469 312.636719 L 516.464844 312.636719 C 517.707031 312.636719 518.949219 312.722656 520.179688 312.894531 C 531.324219 314.429688 536.960938 319.300781 536.960938 327.335938 L 536.960938 358.957031 C 536.960938 365.472656 534.566406 368.960938 529.050781 371.234375 L 542.144531 383.066406 L 526.707031 383.066406 L 516.113281 373.496094 L 505.449219 374.171875 L 491.230469 374.171875 C 488.796875 374.171875 486.234375 373.828125 483.414062 373.058594 C 474.941406 370.75 470.863281 366.308594 470.863281 358.957031 Z M 485.210938 358.167969 C 485.210938 358.59375 485.339844 359.019531 485.46875 359.535156 C 486.253906 363.210938 489.695312 365.261719 494.925781 365.261719 L 507.003906 365.261719 L 495.910156 355.238281 L 511.347656 355.238281 L 521.003906 363.980469 C 522.785156 363.03125 523.957031 361.574219 524.351562 359.707031 C 524.480469 359.28125 524.480469 358.855469 524.480469 358.425781 L 524.480469 328.109375 C 524.480469 327.765625 524.480469 327.320312 524.351562 326.910156 C 523.5625 323.492188 520.125 321.527344 515 321.527344 L 494.960938 321.527344 C 489.050781 321.527344 485.226562 324.089844 485.226562 328.109375 L 485.226562 358.191406 Z M 485.210938 358.167969 " fill-opacity="1" fill-rule="nonzero"/><path fill="#00618a" d="M 615.933594 297.808594 C 607.761719 297.585938 601.519531 298.347656 596.183594 300.597656 C 594.664062 301.238281 592.246094 301.253906 592 303.160156 C 592.832031 304.03125 592.964844 305.335938 593.625 306.410156 C 594.898438 308.476562 597.054688 311.242188 598.96875 312.691406 C 601.066406 314.273438 603.226562 315.96875 605.480469 317.34375 C 609.480469 319.785156 613.945312 321.179688 617.792969 323.621094 C 620.0625 325.0625 622.316406 326.875 624.53125 328.503906 C 625.625 329.308594 626.363281 330.558594 627.785156 331.0625 L 627.785156 330.828125 C 627.035156 329.878906 626.84375 328.566406 626.160156 327.574219 L 623.136719 324.554688 C 620.183594 320.609375 616.433594 317.183594 612.449219 314.320312 C 609.269531 312.035156 602.15625 308.953125 600.828125 305.25 L 600.597656 305.015625 C 602.851562 304.757812 605.488281 303.945312 607.570312 303.390625 C 611.066406 302.453125 614.1875 302.691406 617.796875 301.761719 L 622.679688 300.367188 L 622.679688 299.433594 C 620.855469 297.5625 619.554688 295.082031 617.566406 293.390625 C 612.363281 288.953125 606.683594 284.527344 600.835938 280.828125 C 597.59375 278.777344 593.585938 277.449219 590.148438 275.710938 C 588.988281 275.128906 586.957031 274.824219 586.195312 273.851562 C 584.390625 271.546875 583.40625 268.625 582.015625 265.964844 C 579.097656 260.34375 576.234375 254.203125 573.648438 248.289062 C 571.882812 244.257812 570.730469 240.28125 568.535156 236.660156 C 557.984375 219.300781 546.625 208.824219 529.035156 198.523438 C 525.289062 196.335938 520.785156 195.46875 516.019531 194.339844 L 508.351562 193.875 C 506.789062 193.222656 505.164062 191.308594 503.699219 190.382812 C 497.871094 186.695312 482.921875 178.683594 478.605469 189.199219 C 475.878906 195.851562 482.675781 202.339844 485.109375 205.710938 C 486.816406 208.078125 489.003906 210.726562 490.222656 213.386719 C 491.023438 215.132812 491.164062 216.886719 491.847656 218.738281 C 493.539062 223.273438 495.007812 228.246094 497.191406 232.457031 C 498.296875 234.585938 499.515625 236.832031 500.910156 238.734375 C 501.769531 239.90625 503.238281 240.417969 503.46875 242.226562 C 502.03125 244.238281 501.949219 247.351562 501.140625 249.898438 C 497.511719 261.359375 498.878906 275.601562 504.164062 284.085938 C 505.785156 286.6875 509.601562 292.273438 514.851562 290.132812 C 519.445312 288.257812 518.398438 282.460938 519.734375 277.34375 C 520.027344 276.179688 519.847656 275.332031 520.429688 274.550781 L 520.429688 274.785156 L 524.613281 283.15625 C 527.707031 288.144531 533.203125 293.359375 537.859375 296.878906 C 540.273438 298.703125 542.195312 301.859375 545.296875 302.925781 L 545.296875 302.691406 L 545.0625 302.691406 C 544.457031 301.746094 543.511719 301.359375 542.738281 300.601562 C 540.917969 298.816406 538.894531 296.601562 537.390625 294.558594 C 533.15625 288.804688 529.414062 282.507812 526.007812 275.953125 C 524.378906 272.824219 522.960938 269.371094 521.59375 266.1875 C 521.066406 264.957031 521.070312 263.101562 519.96875 262.464844 C 518.464844 264.800781 516.25 266.683594 515.085938 269.441406 C 513.226562 273.847656 512.988281 279.21875 512.296875 284.789062 C 511.890625 284.9375 512.070312 284.835938 511.832031 285.023438 C 508.597656 284.242188 507.460938 280.90625 506.257812 278.046875 C 503.214844 270.808594 502.652344 259.164062 505.328125 250.839844 C 506.015625 248.683594 509.148438 241.898438 507.882812 239.910156 C 507.277344 237.921875 505.28125 236.753906 504.164062 235.253906 C 502.785156 233.382812 501.402344 230.910156 500.445312 228.742188 C 497.957031 223.105469 496.792969 216.773438 494.171875 211.070312 C 492.917969 208.34375 490.804688 205.589844 489.0625 203.183594 C 487.132812 200.5 484.976562 198.519531 483.484375 195.296875 C 482.953125 194.140625 482.230469 192.296875 483.019531 191.109375 C 483.097656 190.761719 483.261719 190.460938 483.515625 190.207031 C 483.765625 189.953125 484.066406 189.789062 484.414062 189.714844 C 485.761719 188.675781 489.519531 190.058594 490.921875 190.644531 C 494.644531 192.195312 497.757812 193.667969 500.914062 195.761719 C 502.433594 196.746094 503.964844 198.710938 505.792969 199.25 L 507.882812 199.25 C 511.152344 200.003906 514.820312 199.488281 517.875 200.414062 C 523.277344 202.058594 528.117188 204.613281 532.511719 207.390625 C 545.910156 215.855469 556.859375 227.902344 564.351562 242.292969 C 565.554688 244.605469 566.074219 246.816406 567.136719 249.269531 C 569.28125 254.199219 571.976562 259.3125 574.109375 264.152344 C 576.238281 268.980469 578.304688 273.851562 581.3125 277.871094 C 582.894531 279.980469 588.996094 281.117188 591.769531 282.289062 C 593.714844 283.109375 596.898438 283.96875 598.742188 285.078125 C 602.257812 287.203125 605.667969 289.730469 608.96875 292.058594 C 610.617188 293.222656 615.6875 295.773438 615.941406 297.871094 Z M 615.933594 297.808594 " fill-opacity="1" fill-rule="nonzero"/><path fill="#00618a" d="M 512.070312 209.207031 C 510.367188 209.175781 509.164062 209.394531 507.890625 209.675781 L 507.890625 209.90625 L 508.121094 209.90625 C 508.933594 211.578125 510.367188 212.652344 511.371094 214.09375 L 513.699219 218.976562 L 513.929688 218.742188 C 515.367188 217.726562 516.027344 216.105469 516.019531 213.625 C 515.441406 213.019531 515.355469 212.257812 514.855469 211.53125 C 514.191406 210.566406 512.886719 210.015625 512.066406 209.203125 Z M 512.070312 209.207031 " fill-opacity="1" fill-rule="evenodd"/><path fill="#e48e00" d="M 610.496094 364.808594 C 610.496094 370.664062 615.121094 374.613281 620.292969 374.613281 C 625.464844 374.613281 630.089844 370.664062 630.089844 364.808594 C 630.089844 358.953125 625.464844 355.003906 620.292969 355.003906 C 615.121094 355.003906 610.496094 358.953125 610.496094 364.808594 Z M 627.894531 364.808594 C 627.894531 369.253906 624.5 372.574219 620.289062 372.574219 C 616.03125 372.574219 612.683594 369.253906 612.683594 364.808594 C 612.683594 360.363281 616.027344 357.042969 620.289062 357.042969 C 624.496094 357.042969 627.894531 360.363281 627.894531 364.808594 Z M 622.929688 370.40625 L 625.121094 370.40625 L 621.910156 365.492188 C 623.632812 365.308594 624.9375 364.46875 624.9375 362.429688 C 624.9375 360.15625 623.5 359.214844 620.734375 359.214844 L 616.371094 359.214844 L 616.371094 370.40625 L 618.25 370.40625 L 618.25 365.570312 L 620 365.570312 L 622.925781 370.40625 Z M 618.25 363.996094 L 618.25 360.78125 L 620.417969 360.78125 C 621.542969 360.78125 622.902344 360.992188 622.902344 362.300781 C 622.902344 363.867188 621.671875 364 620.261719 364 L 618.25 364 Z M 618.25 363.996094 " fill-opacity="1" fill-rule="evenodd"/></svg>